<?xml version="1.0" encoding="UTF-8"?>
<svg version="1.1" xmlns="http://www.w3.org/2000/svg" width="396" height="127">
<path d="M0 0 C130.68 0 261.36 0 396 0 C396 41.91 396 83.82 396 127 C265.32 127 134.64 127 0 127 C0 85.09 0 43.18 0 0 Z " fill="#FDFDFD" transform="translate(0,0)"/>
<path d="M0 0 C1.18797432 0.00848969 1.18797432 0.00848969 2.39994812 0.01715088 C4.91699969 0.03945192 7.43260118 0.08963361 9.94921875 0.140625 C11.66078666 0.16069825 13.37237699 0.17894758 15.08398438 0.1953125 C19.2687836 0.23929575 23.45250575 0.30827731 27.63671875 0.390625 C27.21696777 1.04764404 26.7972168 1.70466309 26.36474609 2.3815918 C22.59283563 8.29585152 18.85317948 14.22889336 15.14428711 20.18286133 C13.20310608 23.29715915 11.25413049 26.40649358 9.3046875 29.515625 C7.13480118 32.97944967 4.98551114 36.45284266 2.875 39.953125 C2.47780762 40.60047607 2.08061523 41.24782715 1.67138672 41.91479492 C0.65966987 43.56384385 -0.33876122 45.22102422 -1.3359375 46.87890625 C-3.80894116 49.94276242 -5.71584348 50.913316 -9.36328125 52.390625 C-12.05192083 52.63741091 -14.49109373 52.74358843 -17.16796875 52.68359375 C-17.89194855 52.67934891 -18.61592834 52.67510406 -19.36184692 52.67073059 C-21.65438412 52.65405472 -23.94601371 52.61642581 -26.23828125 52.578125 C-27.80076847 52.56306371 -29.3632696 52.54937784 -30.92578125 52.53710938 C-34.7386263 52.50418793 -38.55080036 52.45248502 -42.36328125 52.390625 C-41.17209753 49.2448001 -39.88902562 46.41817346 -38.0703125 43.58984375 C-37.61213135 42.87127197 -37.1539502 42.1527002 -36.68188477 41.41235352 C-36.18487061 40.64205811 -35.68785645 39.8717627 -35.17578125 39.078125 C-31.53591094 33.39735362 -27.92807348 27.70268436 -24.41015625 21.9453125 C-23.74781982 20.86677002 -23.0854834 19.78822754 -22.40307617 18.67700195 C-21.10464562 16.55997819 -19.8129132 14.43882877 -18.52856445 12.31323242 C-17.92874756 11.33974854 -17.32893066 10.36626465 -16.7109375 9.36328125 C-16.18508057 8.49968994 -15.65922363 7.63609863 -15.11743164 6.74633789 C-10.77120024 0.90962435 -7.09321956 -0.19226757 0 0 Z " fill="#010101" transform="translate(43.36328125,56.609375)"/>
<path d="M0 0 C4.58980814 -0.07447267 9.17926014 -0.12875322 13.76953125 -0.16479492 C15.32916394 -0.17982869 16.88875472 -0.20026135 18.44824219 -0.22631836 C20.69737116 -0.26294211 22.94593847 -0.27978021 25.1953125 -0.29296875 C25.8861795 -0.30845261 26.57704651 -0.32393646 27.28884888 -0.33988953 C31.9360351 -0.34148445 35.04292904 0.58475991 39 3 C40.73046875 4.8828125 40.73046875 4.8828125 42.1875 7.125 C42.75984375 7.99253906 43.3321875 8.86007813 43.921875 9.75390625 C44.60765625 10.82511719 45.2934375 11.89632813 46 13 C46.96231944 14.46824972 47.92595724 15.93563586 48.890625 17.40234375 C50.88081089 20.44202802 52.86900273 23.48288647 54.83984375 26.53515625 C55.25613037 27.178479 55.67241699 27.82180176 56.10131836 28.48461914 C57 30 57 30 57 31 C52.4285302 31.09943798 47.85770025 31.17173349 43.28540039 31.21972656 C41.73255435 31.2397487 40.17978281 31.26697517 38.62719727 31.30175781 C36.38539168 31.3506961 34.14458907 31.37306168 31.90234375 31.390625 C31.21663803 31.41127014 30.53093231 31.43191528 29.82444763 31.45318604 C24.6070503 31.45557381 21.00883856 30.22240853 17 27 C14.64477539 24.17504883 14.64477539 24.17504883 12.59765625 20.95703125 C12.04651405 20.10343269 12.04651405 20.10343269 11.48423767 19.23258972 C10.32881654 17.43488216 9.19585543 15.62417892 8.0625 13.8125 C7.27677262 12.58570231 6.48967459 11.35978135 5.70117188 10.13476562 C0 1.2244674 0 1.2244674 0 0 Z " fill="#020202" transform="translate(64,18)"/>
<path d="M0 0 C0.74617584 0.00707474 1.49235168 0.01414948 2.26113892 0.0214386 C4.62566842 0.04924948 6.9877588 0.11195325 9.3515625 0.17578125 C10.96220518 0.20088175 12.57288529 0.22369186 14.18359375 0.24414062 C18.11551162 0.29903115 22.04562473 0.38520276 25.9765625 0.48828125 C23.79921251 6.42886998 20.30817448 11.33161518 16.7890625 16.55078125 C16.14130859 17.54400391 15.49355469 18.53722656 14.82617188 19.56054688 C14.18099609 20.51767578 13.53582031 21.47480469 12.87109375 22.4609375 C12.29206299 23.32984619 11.71303223 24.19875488 11.11645508 25.09399414 C7.32163659 29.33994792 3.79379951 31.26717437 -1.75561523 31.94238281 C-3.71156616 31.91096191 -3.71156616 31.91096191 -5.70703125 31.87890625 C-6.40740005 31.87324646 -7.10776886 31.86758667 -7.82936096 31.86175537 C-10.04061695 31.83957345 -12.25018123 31.78941931 -14.4609375 31.73828125 C-15.97067953 31.7181924 -17.48044725 31.69994583 -18.99023438 31.68359375 C-22.66850749 31.63977072 -26.34580706 31.57087466 -30.0234375 31.48828125 C-27.91314058 25.77087849 -24.63501658 21.03759529 -21.2734375 15.98828125 C-20.665 15.05113281 -20.0565625 14.11398438 -19.4296875 13.1484375 C-18.52476563 11.78525391 -18.52476563 11.78525391 -17.6015625 10.39453125 C-17.05918945 9.57275391 -16.51681641 8.75097656 -15.95800781 7.90429688 C-11.23870751 2.01053163 -7.53353365 -0.27276899 0 0 Z " fill="#030303" transform="translate(94.0234375,56.51171875)"/>
<path d="M0 0 C2.64 0 5.28 0 8 0 C9.98 5.28 11.96 10.56 14 16 C15.98 10.72 17.96 5.44 20 0 C22.64 0 25.28 0 28 0 C29.39777395 10.32724245 30.43174786 20.59201341 31 31 C28.69 31 26.38 31 24 31 C23.67 25.72 23.34 20.44 23 15 C22.34 15 21.68 15 21 15 C20.80857422 16.07507813 20.80857422 16.07507813 20.61328125 17.171875 C20.00343468 19.9841611 19.19917089 22.55758504 18.1875 25.25 C17.87167969 26.12140625 17.55585938 26.9928125 17.23046875 27.890625 C16.82441406 28.58671875 16.41835938 29.2828125 16 30 C14.68 30.33 13.36 30.66 12 31 C10.02 26.05 8.04 21.1 6 16 C5.71125 17.175625 5.4225 18.35125 5.125 19.5625 C4.16686279 23.4018927 3.10794489 27.2013318 2 31 C0.02 31 -1.96 31 -4 31 C-3.26791494 24.1269296 -2.38450429 17.28402386 -1.4375 10.4375 C-1.29892578 9.42880859 -1.16035156 8.42011719 -1.01757812 7.38085938 C-0.67941475 4.92042929 -0.3402027 2.46014879 0 0 Z " fill="#060606" transform="translate(284,56)"/>
<path d="M0 0 C2.51625 -0.0825 5.0325 -0.165 7.625 -0.25 C8.79603271 -0.30462402 8.79603271 -0.30462402 9.99072266 -0.36035156 C15.1007707 -0.4407839 17.951248 0.63642141 22 4 C23.59643412 7.19286823 23.51370451 10.53420693 23 14 C21.125 16.5 21.125 16.5 19 18 C18.34 18 17.68 18 17 18 C17.40992188 18.60328125 17.81984375 19.2065625 18.2421875 19.828125 C18.78101563 20.62734375 19.31984375 21.4265625 19.875 22.25 C20.67550781 23.43335938 20.67550781 23.43335938 21.4921875 24.640625 C22.81822015 26.71555692 23.94928175 28.77614972 25 31 C21.77280243 31.73956611 19.20224326 31.92268026 16 31 C12.76880491 27.6733016 10.3680477 23.97470676 8 20 C7.67 23.63 7.34 27.26 7 31 C4.69 31 2.38 31 0 31 C0 20.77 0 10.54 0 0 Z " fill="#040404" transform="translate(199,56)"/>
<path d="M0 0 C7 0 7 0 8.98803711 1.56054688 C9.4960083 2.27275391 10.00397949 2.98496094 10.52734375 3.71875 C11.09130859 4.48574219 11.65527344 5.25273438 12.23632812 6.04296875 C12.79771484 6.85378906 13.35910156 7.66460937 13.9375 8.5 C14.52595703 9.31082031 15.11441406 10.12164062 15.72070312 10.95703125 C17.16755139 12.95674023 18.58655541 14.97654249 20 17 C20.33 11.39 20.66 5.78 21 0 C22.98 0 24.96 0 27 0 C27 9.9 27 19.8 27 30 C19 30 19 30 17.08203125 28.53125 C16.66308594 27.8609375 16.24414062 27.190625 15.8125 26.5 C15.34199219 25.778125 14.87148438 25.05625 14.38671875 24.3125 C13.92910156 23.549375 13.47148437 22.78625 13 22 C12.51144531 21.236875 12.02289063 20.47375 11.51953125 19.6875 C10.32106425 17.80755177 9.15704525 15.90572159 8 14 C7.67 19.28 7.34 24.56 7 30 C4.69 30 2.38 30 0 30 C0 20.1 0 10.2 0 0 Z " fill="#030303" transform="translate(335,57)"/>
<path d="M0 0 C16 0 16 0 22 3 C24.82008896 7.23013344 24.66787573 11.03165617 24 16 C22.23825659 18.57969571 21.07529887 19.53915763 18.25 20.75 C14.82288619 21.13079042 11.44743738 21.05745729 8 21 C8 24.63 8 28.26 8 32 C5.36 32 2.72 32 0 32 C0 21.44 0 10.88 0 0 Z " fill="#090909" transform="translate(143,56)"/>
<path d="M0 0 C1.134375 0.020625 2.26875 0.04125 3.4375 0.0625 C13.4375 22.91356383 13.4375 22.91356383 13.4375 31.0625 C11.1275 31.0625 8.8175 31.0625 6.4375 31.0625 C6.21320313 30.41796875 5.98890625 29.7734375 5.7578125 29.109375 C4.60860544 26.81861148 4.60860544 26.81861148 2.0546875 26.453125 C0.69730469 26.38351563 0.69730469 26.38351563 -0.6875 26.3125 C-1.59757812 26.25578125 -2.50765625 26.1990625 -3.4453125 26.140625 C-4.49332031 26.10195312 -4.49332031 26.10195312 -5.5625 26.0625 C-5.8925 27.7125 -6.2225 29.3625 -6.5625 31.0625 C-9.2025 31.0625 -11.8425 31.0625 -14.5625 31.0625 C-13.16046923 26.8070805 -11.75455222 22.55297144 -10.3449707 18.30004883 C-9.86570101 16.85216355 -9.38750743 15.40392162 -8.91040039 13.95532227 C-8.22562716 11.87682575 -7.53703228 9.79962997 -6.84765625 7.72265625 C-6.43394775 6.47105713 -6.02023926 5.21945801 -5.59399414 3.92993164 C-4.20683889 0.07380419 -4.20683889 0.07380419 0 0 Z " fill="#050505" transform="translate(262.5625,55.9375)"/>
<path d="M0 0 C2.05078125 0.03255208 4.1015625 0.06510417 6.15234375 0.09765625 C7.44182654 3.86703089 8.72332075 7.63901782 9.99755859 11.41357422 C10.43190745 12.69653904 10.86841029 13.97877677 11.30712891 15.26025391 C11.9383173 17.10515603 12.56105934 18.95294102 13.18359375 20.80078125 C13.56064453 21.91098633 13.93769531 23.02119141 14.32617188 24.16503906 C15.15234375 27.09765625 15.15234375 27.09765625 15.15234375 31.09765625 C12.84234375 31.09765625 10.53234375 31.09765625 8.15234375 31.09765625 C7.65734375 28.62265625 7.65734375 28.62265625 7.15234375 26.09765625 C3.52234375 26.09765625 -0.10765625 26.09765625 -3.84765625 26.09765625 C-4.17765625 27.74765625 -4.50765625 29.39765625 -4.84765625 31.09765625 C-7.15765625 31.09765625 -9.46765625 31.09765625 -11.84765625 31.09765625 C-11.24699071 27.00107175 -10.34748457 23.22176929 -9.03515625 19.296875 C-8.68195313 18.23791016 -8.32875 17.17894531 -7.96484375 16.08789062 C-7.59617187 14.99798828 -7.2275 13.90808594 -6.84765625 12.78515625 C-6.29464844 11.12129883 -6.29464844 11.12129883 -5.73046875 9.42382812 C-2.6144038 0.13818202 -2.6144038 0.13818202 0 0 Z " fill="#050505" transform="translate(379.84765625,55.90234375)"/>
<path d="M0 0 C6.6 0 13.2 0 20 0 C20 2.31 20 4.62 20 7 C15.71 7 11.42 7 7 7 C7 8.65 7 10.3 7 12 C11.29 12 15.58 12 20 12 C20 14.31 20 16.62 20 19 C15.71 19 11.42 19 7 19 C7 20.98 7 22.96 7 25 C11.29 25 15.58 25 20 25 C20 26.98 20 28.96 20 31 C13.4 31 6.8 31 0 31 C0 20.77 0 10.54 0 0 Z " fill="#090909" transform="translate(172,56)"/>
<path d="M0 0 C8.25 0 16.5 0 25 0 C25 2.31 25 4.62 25 7 C22.03 7 19.06 7 16 7 C16 14.92 16 22.84 16 31 C13.69 31 11.38 31 9 31 C9 23.08 9 15.16 9 7 C6.03 7 3.06 7 0 7 C0 4.69 0 2.38 0 0 Z " fill="#090909" transform="translate(225,56)"/>
<path d="M0 0 C2.64 0 5.28 0 8 0 C8 10.56 8 21.12 8 32 C5.36 32 2.72 32 0 32 C0 21.44 0 10.88 0 0 Z " fill="#0F0F0F" transform="translate(320,56)"/>
<path d="M0 0 C6.625 -0.25 6.625 -0.25 10 2 C9.125 6.875 9.125 6.875 8 8 C5.32941149 8.14115161 2.67567762 8.04247107 0 8 C0 5.36 0 2.72 0 0 Z " fill="#EDEDED" transform="translate(150,63)"/>
<path d="M0 0 C5.53846154 -0.36923077 5.53846154 -0.36923077 7.875 1.5 C8.24625 1.995 8.6175 2.49 9 3 C8.34 4.65 7.68 6.3 7 8 C4.69 8.33 2.38 8.66 0 9 C0 6.03 0 3.06 0 0 Z " fill="#DEDEDE" transform="translate(206,62)"/>
<path d="M0 0 C2.76223278 2.76223278 2.57856291 5.20706617 3 9 C1.02 9 -0.96 9 -3 9 C-2.01 6.03 -1.02 3.06 0 0 Z " fill="#E3E3E3" transform="translate(381,67)"/>
<path d="M0 0 C2.76223278 2.76223278 2.57856291 5.20706617 3 9 C1.02 9 -0.96 9 -3 9 C-2.01 6.03 -1.02 3.06 0 0 Z " fill="#E3E3E3" transform="translate(262,67)"/>
</svg>
